inDegrees=no
num_controls=7
num_derivatives=13
num_iterations=98
num_multipliers=7
num_parameters=0
num_slacks=7
num_states=26
objective=4.792223
objective_accelerations=0.472595
objective_balance=0.014559
objective_effort=0.136482
objective_height=4.117067
objective_ligament=0.051519
solver_duration=1084.536077
status=Solve_Succeeded
success=true
DataType=double
version=3
OpenSimVersion=4.4-2022-07-23-0e9fedc
endheader
time	/jointset/ground_pelvis/pelvis_tilt/value	/jointset/ground_pelvis/pelvis_tx/value	/jointset/ground_pelvis/pelvis_ty/value	/jointset/hip_l/hip_flexion_l/value	/jointset/hip_l/hip_adduction_l/value	/jointset/hip_l/hip_rotation_l/value	/jointset/back/lumbar_extension/value	/jointset/patellofemoral_l/patellar_flexion_l/value	/jointset/knee_l/knee_flexion_l/value	/jointset/knee_l/knee_adduction_l/value	/jointset/knee_l/knee_rotation_l/value	/jointset/ankle_l/ankle_angle_l/value	/jointset/subtalar_l/subtalar_angle_l/value	/jointset/ground_pelvis/pelvis_tilt/speed	/jointset/ground_pelvis/pelvis_tx/speed	/jointset/ground_pelvis/pelvis_ty/speed	/jointset/hip_l/hip_flexion_l/speed	/jointset/hip_l/hip_adduction_l/speed	/jointset/hip_l/hip_rotation_l/speed	/jointset/back/lumbar_extension/speed	/jointset/patellofemoral_l/patellar_flexion_l/speed	/jointset/knee_l/knee_flexion_l/speed	/jointset/knee_l/knee_adduction_l/speed	/jointset/knee_l/knee_rotation_l/speed	/jointset/ankle_l/ankle_angle_l/speed	/jointset/subtalar_l/subtalar_angle_l/speed	/forceset/tau_hip_flexion_l	/forceset/tau_hip_adduction_l	/forceset/tau_hip_rotation_l	/forceset/tau_knee_flexion_l	/forceset/tau_ankle_angle_l	/forceset/tau_subtalar_angle_l	/forceset/tau_lumbar_extension	lambda_cid13_p0	lambda_cid13_p1	lambda_cid13_p2	lambda_cid13_p3	lambda_cid13_p4	lambda_cid13_p5	lambda_cid14_p0	/jointset/ground_pelvis/pelvis_tilt/accel	/jointset/ground_pelvis/pelvis_tx/accel	/jointset/ground_pelvis/pelvis_ty/accel	/jointset/hip_l/hip_flexion_l/accel	/jointset/hip_l/hip_adduction_l/accel	/jointset/hip_l/hip_rotation_l/accel	/jointset/back/lumbar_extension/accel	/jointset/patellofemoral_l/patellar_flexion_l/accel	/jointset/knee_l/knee_flexion_l/accel	/jointset/knee_l/knee_adduction_l/accel	/jointset/knee_l/knee_rotation_l/accel	/jointset/ankle_l/ankle_angle_l/accel	/jointset/subtalar_l/subtalar_angle_l/accel	gamma_cid13_p0	gamma_cid13_p1	gamma_cid13_p2	gamma_cid13_p3	gamma_cid13_p4	gamma_cid13_p5	gamma_cid14_p0
0.5	-0.1294663574169921	0.06190170700491317	0.8097249356443437	0.765531030237521	-0.3737981400183029	-0.03014348294563116	-0.3903539721842105	0.8283851902366157	0.8283851902363019	-0.07318387988028807	-0.174506093150455	0.3086158262906318	0.1476145485360887	-0.5224237059179812	-0.1166277255614442	-0.3650675249599719	1.786462732823044	0.009229026820954504	0.4979140661163972	-0.3265958920598454	1.653021946709752	1.65302194671002	0.20905692420834	0.0002392851897755738	0.5293231745450785	0.2222680002245038	-0.06949274583768689	0.02096627205772804	0.007533148193889944	-0.1996892137709951	-0.01053728618935656	0.01332636897655822	0.0957854983921665	-28.14053003533229	-0.7990912064453066	-0.2236873003827345	2.037365466703039	-446.7717594803055	-71.90939884103265	-10.10648227921228	0.0126673809080368	0.2074012467843852	-0.3173158781410207	-0.8044714851967437	0.07535275424981168	-0.4872718088281897	1.142225534033556	-1.335730478935719	-1.335730478935719	-0.3905460516937212	0.05632029816823002	-0.6955983814294368	0.06360149951341393	-1.214305633277201e-07	-2.458092707134417e-06	1.077626554556358e-06	-2.58095323008889e-07	-2.897041061539632e-07	-1.83430850356366e-06	-3.131021788380913e-07
0.51	-0.1346887524241976	0.06074600084876197	0.8060592717928071	0.7833519709828576	-0.3737032070639193	-0.02519071113608203	-0.3935630128283903	0.8448457106256427	0.8448457106253409	-0.07111410545351567	-0.1745035839669959	0.313873088377088	0.149838391422799	-0.5219911015807018	-0.1144973808783712	-0.3679823889805473	1.777481420646851	0.009759759072692616	0.4925799766063608	-0.3151717034944416	1.638839406594109	1.638839406594478	0.2049128674561862	0.0002595859519383749	0.5220555041186993	0.222468328576794	-0.07297918864644376	0.02226646392162716	0.007017218605740431	-0.2011944377191132	-0.01253406152293999	0.01427059706260689	0.09854061776977346	-28.83202702011765	-1.055664158291945	-0.219824624658324	2.203669730384642	-448.9844196951871	-72.18009407946386	-9.418777945452845	0.06816624268514457	0.2182198547690448	-0.2662015784005457	-0.9815814667292515	0.04228704558068297	-0.5658227956028496	1.148595509848643	-1.495861873603393	-1.495861873588487	-0.4244037379579104	-0.02542502236385195	-0.7535105115772854	-0.006343155461134347	-1.268632698168471e-07	-2.396889322460635e-06	1.164334113109053e-06	-2.474411044127651e-07	-2.991664865125103e-07	-1.835825595107384e-06	-3.180810993501879e-07
0.52	-0.1399048995315173	0.05961207189458156	0.8023669333181886	0.8010757745298602	-0.3736028960700246	-0.02029314927635292	-0.3966565955885005	0.8611571363943842	0.8611571363940693	-0.06908538524436118	-0.174500933773459	0.3190554419316149	0.1520633192613225	-0.5211741259415253	-0.1122722851672883	-0.3704024495764561	1.767035293154728	0.01030463472225889	0.4868720761558583	-0.3035043152468347	1.623203022649475	1.623203022649942	0.2008460806647547	0.0002674872099319469	0.5143414681589175	0.2224849905871636	-0.07646563145516176	0.02356665578536826	0.006501289017896385	-0.2026996616672641	-0.01453083685658205	0.0152148251484113	0.1012957371474529	-29.52260893319275	-1.317918564648116	-0.2087493319296382	2.358594213290052	-451.2013059098733	-72.50162358803772	-8.735840527343665	0.08954164128760818	0.2263514523862943	-0.2183551932076774	-1.097434548382694	0.07818143381544335	-0.5620339969214108	1.190865470474113	-1.626499244734167	-1.626499244734229	-0.3750920595492936	0.05384039733427304	-0.7848714881100604	0.02686823112920506	-1.340895445455816e-07	-2.393332410035637e-06	1.261759743139742e-06	-2.428506733782619e-07	-3.139550046983219e-07	-1.873505457609104e-06	-3.285528739208737e-07
0.53	-0.145110899081858	0.05850086644392483	0.7986528945092286	0.8186877878997724	-0.3734972612065023	-0.01545411895201191	-0.3996323700039503	0.8773050772235438	0.8773050772237292	-0.06709747323038599	-0.1744982975117937	0.3241585064933856	0.1542871967422188	-0.5199570786637524	-0.1099527963127755	-0.3723201422085209	1.755123961539348	0.01081943372367259	0.4808888274594265	-0.2916160999955084	1.606159742405279	1.606159742405476	0.196737263370104	0.0002587654214749513	0.5062101564519041	0.2222527891789272	-0.07994282971707405	0.02514707770707351	0.005959726357198124	-0.204271321555421	-0.01631892963383354	0.01578549606203943	0.1040322574046209	-30.18190081538344	-1.383698479831093	-0.2743643515544327	2.502230680518696	-453.4769420876273	-72.42248263024747	-8.059754645516236	0.1480712575681377	0.2371008115107489	-0.1657651417210173	-1.274518122349091	0.03767686666046775	-0.6235655922429078	1.192969729420955	-1.776985720634545	-1.776985720675114	-0.4289338568727741	-0.02821219613989005	-0.8365541779535458	-0.05370074954306284	-1.395696904178846e-07	-2.322485149623524e-06	1.362049817397538e-06	-2.300387697270205e-07	-3.257224897331348e-07	-1.865324678268122e-06	-3.34926917505124e-07
0.54	-0.1503026711621064	0.05741332652371854	0.7949222210052459	0.8361733808226931	-0.3733865688062896	-0.01067634017189864	-0.4024882282314904	0.8932758365890252	0.8932758365896335	-0.06515068084789245	-0.1744957452137972	0.329178399304896	0.156507664924484	-0.5183286319241438	-0.1075391790771968	-0.3737293885811042	1.741751203754637	0.01131614205935498	0.474621767313443	-0.2795210776658099	1.587766729906203	1.58776672990613	0.1926221543774588	0.0002506944648438804	0.4977071181066312	0.2218031308609704	-0.08342002797893952	0.0267274996286578	0.005418163696193001	-0.2058429814435836	-0.01810702241112528	0.01635616697548848	0.1067687776618579	-30.84016094253351	-1.456631792101517	-0.3308741746115936	2.631960525632647	-455.7476221398191	-72.39869825286625	-7.409180568053508	0.1718215336548413	0.2451771285993791	-0.1166659413113678	-1.389719782248935	0.07456330066916078	-0.6187962868317269	1.232226886148482	-1.896445695710072	-1.896445695710054	-0.3763503991482069	0.05397056369936865	-0.8592168157621014	-0.01662315081495602	-1.43117949044774e-07	-2.177188993566092e-06	1.465509063991707e-06	-2.081307687125795e-07	-3.341475551115235e-07	-1.806404465399043e-06	-3.367673012745945e-07
0.55	-0.1554763373819567	0.05635042254076317	0.7911800197263819	0.8535181528673578	-0.3732710535283798	-0.005962358202562994	-0.4052222186701486	0.9090559764442322	0.9090559764442847	-0.06324531367189887	-0.174493182297763	0.3341114975187053	0.1587224490843646	-0.516352214611643	-0.1050221619002681	-0.3746222739320479	1.726968256260673	0.0117850060947569	0.4680943934944771	-0.2672615273492199	1.568039256465463	1.568039256465536	0.1884795460401822	0.0002411513360484223	0.4888623435076854	0.2211196524434234	-0.08647659739648893	0.02741298350962929	0.004855989560191309	-0.2081628687795987	-0.01906859601666805	0.01720857021490286	0.1092016648447293	-31.20844708991014	-1.715022515998537	-0.3437350047592195	2.518075323104247	-458.0880456287102	-72.88096313934815	-6.792795770624798	0.2183914207732918	0.2578431177838518	-0.06237859168191183	-1.557847482789594	0.03268121347270422	-0.6820687046610706	1.22514151174557	-2.044128313994422	-2.04412831397257	-0.429231833049966	-0.03131702482200941	-0.9047242051270612	-0.09916776664317316	-1.577217430939727e-07	-1.846378346096887e-06	1.755820036902762e-06	-1.49813739694631e-07	-3.76456919140738e-07	-1.679986497618893e-06	-3.485796537886351e-07
0.5600000000000001	-0.1606286715105268	0.05531326455068589	0.7874315338420704	0.8707080423871303	-0.3731509229584095	-0.001316122126482091	-0.4078331491241697	0.9246321955358614	0.9246321955354163	-0.06138057573542099	-0.174491294867868	0.3389546247018937	0.1609294069441861	-0.5140622136701201	-0.1023899805015799	-0.3749863096707124	1.710774698773941	0.01223920047006299	0.4610725886662183	-0.2549090807393673	1.546982577195193	1.546982577195413	0.1844963064215925	0.0001155972611361866	0.4797129119820954	0.220237870849133	-0.08953316681400376	0.02809846739047604	0.004293815425315227	-0.2104827561156437	-0.02003016962225605	0.01806097345410549	0.1116345520276543	-31.57445452167362	-1.983810883406867	-0.3435167844618342	2.383201408313546	-460.4246955774805	-73.42702851884688	-6.210724746589678	0.234538259459411	0.268209972951194	-0.0108960188555361	-1.671841780802745	0.07162936865003566	-0.7176824886902543	1.250806144800916	-2.162286861616018	-2.162286861616043	-0.3444766554108644	0.03076837447593894	-0.9201482010910643	-0.05628378616371139	-1.855921796499419e-07	-1.292950308933563e-06	2.270353081394074e-06	-4.780587707247495e-08	-4.594274415509422e-07	-1.472571223945461e-06	-3.723583687961592e-07
0.5700000000000001	-0.1657563373365246	0.05430285205500737	0.7836820494343031	0.8877290274431903	-0.3730265409127299	0.003260284477565901	-0.4103201601816545	0.9399913499723185	0.9399913499717549	-0.05955727752478046	-0.1744897534363685	0.3437045989851392	0.1631260791298402	-0.5114008059590409	-0.09968890294705914	-0.3748221880229871	1.693198245200117	0.01263510953585306	0.454137754449415	-0.2424815725848319	1.524646249282127	1.52464624928208	0.180185515653518	0.0001684955902477532	0.4702231746093157	0.2190548452021683	-0.09306074872654427	0.02951714834732571	0.003738831240741238	-0.2118891247706634	-0.02222246520675559	0.01847113346896717	0.1143313924228995	-32.38354583160007	-1.977355197770831	-0.3935739932401414	2.712315216334869	-462.7552067408312	-73.30462081441706	-5.662740977751865	0.2924470941123212	0.2716009784981629	0.04322256346175662	-1.834182467520856	0.02291967387408981	-0.6923937185940556	1.240456876561861	-2.299537716313893	-2.299537716353895	-0.4711415265409803	-0.01063856563546656	-0.9722464057102793	-0.1557207739073547	-1.961115339225822e-07	-8.610712231307344e-07	2.540582980787805e-06	2.360979744813116e-08	-4.957314989625329e-07	-1.258158056486354e-06	-3.756269037689935e-07
0.58	-0.1708552880719687	0.05331955920123304	0.7799368375043894	0.9045675208991573	-0.3728983301767223	0.007765140773362791	-0.4126825494124328	0.9551210947376124	0.9551210947369204	-0.05777643946969935	-0.1744883208470909	0.348357903914589	0.1653096392950363	-0.5083191955607718	-0.09696605212074022	-0.3741318141001198	1.674276378752348	0.01300493853485555	0.4467625270158732	-0.2299847153990053	1.501100642962593	1.50110064296228	0.1760042753240447	9.382880878883832e-05	0.4603790412229876	0.2176154667574293	-0.09658833063897682	0.03093582930421617	0.003183847055866409	-0.2132954934256465	-0.02441476079123896	0.0188812934839015	0.1170282328182353	-33.1915074728692	-1.978023468947675	-0.4345829629467223	3.020197574517253	-465.0792928748143	-73.25343472209896	-5.148388124336002	0.3185787968975238	0.2725646273106954	0.09435443617284471	-1.940924355591866	0.06641335529250549	-0.8057611320379424	1.264675951059078	-2.404142542909604	-2.404142542909587	-0.3185665676906332	0.005255352361810633	-0.9910274038009101	-0.1075543457186266	-1.840341298727487e-07	-5.874884460764563e-07	2.492650644705627e-06	5.518448281323126e-08	-4.712606252131405e-07	-1.034631352934279e-06	-3.521845066036286e-07
